<svg width="159" height="72" viewBox="0 0 159 72" fill="none" xmlns="http://www.w3.org/2000/svg">
<path d="M21.1346 43.9671C20.7629 44.154 20.3912 44.341 27.0767 41.2588C33.7623 38.1766 47.5164 31.8195 59.5273 27.4228C71.5383 23.026 81.3892 20.7824 85.7204 19.2526C90.0517 17.7228 88.5648 16.9749 85.9401 16.2157C74.5259 12.9139 69.0319 14.6859 65.1737 16.8559C63.3206 17.8982 62.2562 19.7852 61.3184 21.1988C60.5722 22.3237 60.5609 24.1252 60.7467 26.3859C60.9376 28.7072 62.6167 31.4852 66.8128 37.3069C69.8966 41.5854 75.6555 47.9898 78.8997 52.2959C83.3215 58.165 83.8393 62.0808 83.5633 65.1914C83.4306 66.6869 81.9862 67.741 80.3895 68.5059C76.9467 70.1551 70.3667 69.0952 60.544 65.809C54.8315 63.8979 48.3049 59.7182 40.8618 54.8002C33.4187 49.8822 25.4265 43.8991 18.893 38.4797C7.19543 28.7768 1.80452 21.8872 1.04979 19.0571C0.754252 17.9489 1.78199 17.3488 3.93072 16.9664C6.07945 16.584 9.61091 16.397 15.7051 17.2355C21.7993 18.0741 30.3491 19.9438 50.924 28.5729C71.4988 37.202 103.84 52.5339 122.266 60.8995C140.692 69.2652 144.223 70.2 146.879 70.6816C149.535 71.1632 151.207 71.1632 152.255 70.2284C154.595 68.1399 152.385 61.01 147.62 50.8454C144.875 44.9903 140.067 38.4372 134.516 31.3237C128.965 24.2102 122.46 16.9182 118.365 12.6943C113.073 7.23539 109.393 5.82448 105.741 4.59782C102.393 3.47356 99.2493 3.92642 96.7204 4.77063C93.9342 5.70073 91.9273 9.38831 86.9821 14.7426C77.9235 24.5505 69.7754 30.9243 66.686 33.0915C63.5517 35.2902 59.8287 36.7828 54.968 38.0094C48.0601 39.7527 42.177 38.6808 39.3665 38.1171C36.806 37.6035 35.0352 35.8536 33.9087 34.3464C33.4001 33.6659 33.5257 32.8393 33.6187 32.1736C33.7116 31.5078 33.8975 30.9469 35.0155 30.471C36.1335 29.9951 38.178 29.6211 41.8334 29.335C45.4888 29.0489 50.6931 28.8619 66.9423 31.8506C83.1915 34.8394 110.328 41.0095 124.958 44.188C139.588 47.3666 140.889 47.3666 141.559 47.0861C142.549 46.672 139.442 42.6753 131.779 35.8054C127.139 31.6457 120.027 27.2528 113.417 23.536C101.01 16.559 92.682 14.3176 89.6828 14.6887C86.7836 15.0475 85.7261 20.3348 84.4137 28.4114C82.0942 42.6868 83.6478 52.6472 85.1431 53.9673C86.9684 55.5787 90.5811 54.9249 94.0478 53.5169C97.7286 52.022 98.855 45.5139 99.6999 38.1681C100.582 30.4941 101.288 22.6634 104.003 15.9692C106.18 10.5998 110.666 7.52991 116.648 5.2664C132.085 -0.575447 139.391 2.79891 142.221 2.04252C144.643 1.39514 147.659 1.09915 151.976 1C153.483 1.28046 154.801 1.66007 156.206 2.03685C156.868 2.22666 157.426 2.41363 158 2.60627" stroke="white" stroke-width="2" stroke-linecap="round"/>
</svg>
